<mxfile host="app.diagrams.net" agent="Mozilla/5.0 (Macintosh; Intel Mac OS X 10_15_7) AppleWebKit/537.36 (KHTML, like Gecko) Chrome/129.0.0.0 Safari/537.36" version="24.7.17">
  <diagram name="Page-1" id="NDaM8tC6av9HG87AFfyp">
    <mxGraphModel dx="1026" dy="650" grid="1" gridSize="10" guides="1" tooltips="1" connect="1" arrows="1" fold="1" page="1" pageScale="1" pageWidth="850" pageHeight="1100" math="0" shadow="0">
      <root>
        <mxCell id="0" />
        <mxCell id="1" parent="0" />
        <mxCell id="-hpMREdGzcWGO9t-ejSg-4" style="edgeStyle=orthogonalEdgeStyle;rounded=0;orthogonalLoop=1;jettySize=auto;html=1;" edge="1" parent="1" source="-hpMREdGzcWGO9t-ejSg-1" target="-hpMREdGzcWGO9t-ejSg-3">
          <mxGeometry relative="1" as="geometry" />
        </mxCell>
        <mxCell id="-hpMREdGzcWGO9t-ejSg-6" value="1.0 Register As Client" style="edgeLabel;html=1;align=center;verticalAlign=middle;resizable=0;points=[];" vertex="1" connectable="0" parent="-hpMREdGzcWGO9t-ejSg-4">
          <mxGeometry x="-0.35" y="1" relative="1" as="geometry">
            <mxPoint x="17" as="offset" />
          </mxGeometry>
        </mxCell>
        <mxCell id="-hpMREdGzcWGO9t-ejSg-1" value="User" style="shape=umlActor;verticalLabelPosition=bottom;verticalAlign=top;html=1;outlineConnect=0;" vertex="1" parent="1">
          <mxGeometry x="84" y="120" width="30" height="60" as="geometry" />
        </mxCell>
        <mxCell id="-hpMREdGzcWGO9t-ejSg-17" style="edgeStyle=orthogonalEdgeStyle;rounded=0;orthogonalLoop=1;jettySize=auto;html=1;" edge="1" parent="1" source="-hpMREdGzcWGO9t-ejSg-2" target="-hpMREdGzcWGO9t-ejSg-14">
          <mxGeometry relative="1" as="geometry" />
        </mxCell>
        <mxCell id="-hpMREdGzcWGO9t-ejSg-18" value="1.6 Dispatch Client&amp;nbsp;&lt;div&gt;Registered Event&lt;/div&gt;" style="edgeLabel;html=1;align=center;verticalAlign=middle;resizable=0;points=[];" vertex="1" connectable="0" parent="-hpMREdGzcWGO9t-ejSg-17">
          <mxGeometry x="-0.1242" relative="1" as="geometry">
            <mxPoint x="4" y="-3" as="offset" />
          </mxGeometry>
        </mxCell>
        <mxCell id="-hpMREdGzcWGO9t-ejSg-20" style="edgeStyle=orthogonalEdgeStyle;rounded=0;orthogonalLoop=1;jettySize=auto;html=1;" edge="1" parent="1" source="-hpMREdGzcWGO9t-ejSg-2" target="-hpMREdGzcWGO9t-ejSg-19">
          <mxGeometry relative="1" as="geometry" />
        </mxCell>
        <mxCell id="-hpMREdGzcWGO9t-ejSg-21" value="1.5 Store client details" style="edgeLabel;html=1;align=center;verticalAlign=middle;resizable=0;points=[];" vertex="1" connectable="0" parent="-hpMREdGzcWGO9t-ejSg-20">
          <mxGeometry x="-0.04" y="-2" relative="1" as="geometry">
            <mxPoint as="offset" />
          </mxGeometry>
        </mxCell>
        <mxCell id="-hpMREdGzcWGO9t-ejSg-2" value="Registration Service" style="whiteSpace=wrap;html=1;aspect=fixed;" vertex="1" parent="1">
          <mxGeometry x="439" y="180" width="80" height="80" as="geometry" />
        </mxCell>
        <mxCell id="-hpMREdGzcWGO9t-ejSg-9" style="edgeStyle=orthogonalEdgeStyle;rounded=0;orthogonalLoop=1;jettySize=auto;html=1;entryX=0.5;entryY=1;entryDx=0;entryDy=0;" edge="1" parent="1" source="-hpMREdGzcWGO9t-ejSg-3" target="-hpMREdGzcWGO9t-ejSg-5">
          <mxGeometry relative="1" as="geometry" />
        </mxCell>
        <mxCell id="-hpMREdGzcWGO9t-ejSg-10" value="1.1 Create user account" style="edgeLabel;html=1;align=center;verticalAlign=middle;resizable=0;points=[];" vertex="1" connectable="0" parent="-hpMREdGzcWGO9t-ejSg-9">
          <mxGeometry x="-0.4" y="-2" relative="1" as="geometry">
            <mxPoint x="9" y="-3" as="offset" />
          </mxGeometry>
        </mxCell>
        <mxCell id="-hpMREdGzcWGO9t-ejSg-13" value="1.4 Capture Details" style="edgeStyle=orthogonalEdgeStyle;rounded=0;orthogonalLoop=1;jettySize=auto;html=1;entryX=0;entryY=0.5;entryDx=0;entryDy=0;exitX=0.975;exitY=0.85;exitDx=0;exitDy=0;exitPerimeter=0;" edge="1" parent="1" source="-hpMREdGzcWGO9t-ejSg-3" target="-hpMREdGzcWGO9t-ejSg-2">
          <mxGeometry relative="1" as="geometry" />
        </mxCell>
        <mxCell id="-hpMREdGzcWGO9t-ejSg-3" value="Public App" style="whiteSpace=wrap;html=1;aspect=fixed;" vertex="1" parent="1">
          <mxGeometry x="240" y="110" width="80" height="80" as="geometry" />
        </mxCell>
        <mxCell id="-hpMREdGzcWGO9t-ejSg-11" style="edgeStyle=orthogonalEdgeStyle;rounded=0;orthogonalLoop=1;jettySize=auto;html=1;entryX=1;entryY=0.25;entryDx=0;entryDy=0;" edge="1" parent="1" source="-hpMREdGzcWGO9t-ejSg-5" target="-hpMREdGzcWGO9t-ejSg-3">
          <mxGeometry relative="1" as="geometry" />
        </mxCell>
        <mxCell id="-hpMREdGzcWGO9t-ejSg-12" value="1.3 Return Token" style="edgeLabel;html=1;align=center;verticalAlign=middle;resizable=0;points=[];" vertex="1" connectable="0" parent="-hpMREdGzcWGO9t-ejSg-11">
          <mxGeometry x="0.191" relative="1" as="geometry">
            <mxPoint as="offset" />
          </mxGeometry>
        </mxCell>
        <mxCell id="-hpMREdGzcWGO9t-ejSg-5" value="Identity Service" style="whiteSpace=wrap;html=1;aspect=fixed;" vertex="1" parent="1">
          <mxGeometry x="439" y="10" width="80" height="80" as="geometry" />
        </mxCell>
        <mxCell id="-hpMREdGzcWGO9t-ejSg-24" style="edgeStyle=orthogonalEdgeStyle;rounded=0;orthogonalLoop=1;jettySize=auto;html=1;entryX=0.5;entryY=0;entryDx=0;entryDy=0;dashed=1;" edge="1" parent="1" source="-hpMREdGzcWGO9t-ejSg-14" target="-hpMREdGzcWGO9t-ejSg-23">
          <mxGeometry relative="1" as="geometry" />
        </mxCell>
        <mxCell id="-hpMREdGzcWGO9t-ejSg-25" value="1.7 Consume ClientRegistered Event" style="edgeLabel;html=1;align=center;verticalAlign=middle;resizable=0;points=[];" vertex="1" connectable="0" parent="-hpMREdGzcWGO9t-ejSg-24">
          <mxGeometry x="-0.32" y="2" relative="1" as="geometry">
            <mxPoint as="offset" />
          </mxGeometry>
        </mxCell>
        <mxCell id="-hpMREdGzcWGO9t-ejSg-33" style="edgeStyle=orthogonalEdgeStyle;rounded=0;orthogonalLoop=1;jettySize=auto;html=1;entryX=0.5;entryY=1;entryDx=0;entryDy=0;dashed=1;" edge="1" parent="1" source="-hpMREdGzcWGO9t-ejSg-14" target="-hpMREdGzcWGO9t-ejSg-30">
          <mxGeometry relative="1" as="geometry" />
        </mxCell>
        <mxCell id="-hpMREdGzcWGO9t-ejSg-34" value="1.8 Consume&amp;nbsp;&lt;div&gt;ClientRegistered Event&lt;/div&gt;" style="edgeLabel;html=1;align=center;verticalAlign=middle;resizable=0;points=[];" vertex="1" connectable="0" parent="-hpMREdGzcWGO9t-ejSg-33">
          <mxGeometry x="0.3455" y="1" relative="1" as="geometry">
            <mxPoint as="offset" />
          </mxGeometry>
        </mxCell>
        <mxCell id="-hpMREdGzcWGO9t-ejSg-14" value="Event Broker" style="whiteSpace=wrap;html=1;aspect=fixed;" vertex="1" parent="1">
          <mxGeometry x="650" y="180" width="80" height="80" as="geometry" />
        </mxCell>
        <mxCell id="-hpMREdGzcWGO9t-ejSg-15" value="Identity Db" style="shape=cylinder3;whiteSpace=wrap;html=1;boundedLbl=1;backgroundOutline=1;size=15;" vertex="1" parent="1">
          <mxGeometry x="660" y="10" width="60" height="80" as="geometry" />
        </mxCell>
        <mxCell id="-hpMREdGzcWGO9t-ejSg-16" value="1.2 Persist user" style="edgeStyle=orthogonalEdgeStyle;rounded=0;orthogonalLoop=1;jettySize=auto;html=1;entryX=0;entryY=0.5;entryDx=0;entryDy=0;entryPerimeter=0;" edge="1" parent="1" source="-hpMREdGzcWGO9t-ejSg-5" target="-hpMREdGzcWGO9t-ejSg-15">
          <mxGeometry relative="1" as="geometry" />
        </mxCell>
        <mxCell id="-hpMREdGzcWGO9t-ejSg-19" value="Clients Db" style="shape=cylinder3;whiteSpace=wrap;html=1;boundedLbl=1;backgroundOutline=1;size=15;" vertex="1" parent="1">
          <mxGeometry x="449" y="310" width="60" height="80" as="geometry" />
        </mxCell>
        <mxCell id="-hpMREdGzcWGO9t-ejSg-22" value="Dynamo Db(PK Client Id)" style="shape=cylinder3;whiteSpace=wrap;html=1;boundedLbl=1;backgroundOutline=1;size=15;" vertex="1" parent="1">
          <mxGeometry x="850" y="310" width="60" height="80" as="geometry" />
        </mxCell>
        <mxCell id="-hpMREdGzcWGO9t-ejSg-23" value="API Key Validation Service" style="whiteSpace=wrap;html=1;aspect=fixed;" vertex="1" parent="1">
          <mxGeometry x="650" y="310" width="80" height="80" as="geometry" />
        </mxCell>
        <mxCell id="-hpMREdGzcWGO9t-ejSg-26" style="edgeStyle=orthogonalEdgeStyle;rounded=0;orthogonalLoop=1;jettySize=auto;html=1;entryX=0;entryY=0.5;entryDx=0;entryDy=0;entryPerimeter=0;" edge="1" parent="1" source="-hpMREdGzcWGO9t-ejSg-23" target="-hpMREdGzcWGO9t-ejSg-22">
          <mxGeometry relative="1" as="geometry" />
        </mxCell>
        <mxCell id="-hpMREdGzcWGO9t-ejSg-27" value="1.7.1 Persist Api&amp;nbsp;&lt;div&gt;Key and Client&lt;/div&gt;" style="edgeLabel;html=1;align=center;verticalAlign=middle;resizable=0;points=[];" vertex="1" connectable="0" parent="-hpMREdGzcWGO9t-ejSg-26">
          <mxGeometry x="-0.2833" relative="1" as="geometry">
            <mxPoint x="11" as="offset" />
          </mxGeometry>
        </mxCell>
        <mxCell id="-hpMREdGzcWGO9t-ejSg-28" value="&lt;h1 style=&quot;margin-top: 0px; font-size: 9px;&quot;&gt;&lt;span style=&quot;font-size: 9px; font-weight: normal;&quot;&gt;&lt;font style=&quot;font-size: 9px;&quot;&gt;API key is hashed and stored in db. Events contain the hashed data&lt;/font&gt;&lt;/span&gt;&lt;/h1&gt;" style="text;html=1;whiteSpace=wrap;overflow=hidden;rounded=0;fontSize=9;spacing=0;" vertex="1" parent="1">
          <mxGeometry x="640" y="140" width="120" height="40" as="geometry" />
        </mxCell>
        <mxCell id="-hpMREdGzcWGO9t-ejSg-29" value="Reporting Db" style="shape=cylinder3;whiteSpace=wrap;html=1;boundedLbl=1;backgroundOutline=1;size=15;" vertex="1" parent="1">
          <mxGeometry x="1000" y="30" width="60" height="80" as="geometry" />
        </mxCell>
        <mxCell id="-hpMREdGzcWGO9t-ejSg-30" value="Reporting Service" style="whiteSpace=wrap;html=1;aspect=fixed;" vertex="1" parent="1">
          <mxGeometry x="800" y="30" width="80" height="80" as="geometry" />
        </mxCell>
        <mxCell id="-hpMREdGzcWGO9t-ejSg-31" style="edgeStyle=orthogonalEdgeStyle;rounded=0;orthogonalLoop=1;jettySize=auto;html=1;entryX=0;entryY=0.5;entryDx=0;entryDy=0;entryPerimeter=0;" edge="1" parent="1" source="-hpMREdGzcWGO9t-ejSg-30" target="-hpMREdGzcWGO9t-ejSg-29">
          <mxGeometry relative="1" as="geometry" />
        </mxCell>
        <mxCell id="-hpMREdGzcWGO9t-ejSg-35" value="1.8.1 Persist in Db" style="edgeLabel;html=1;align=center;verticalAlign=middle;resizable=0;points=[];" vertex="1" connectable="0" parent="-hpMREdGzcWGO9t-ejSg-31">
          <mxGeometry x="-0.25" y="3" relative="1" as="geometry">
            <mxPoint x="9" y="2" as="offset" />
          </mxGeometry>
        </mxCell>
        <mxCell id="-hpMREdGzcWGO9t-ejSg-36" value="Notification Service" style="whiteSpace=wrap;html=1;aspect=fixed;" vertex="1" parent="1">
          <mxGeometry x="1000" y="230" width="80" height="80" as="geometry" />
        </mxCell>
        <mxCell id="-hpMREdGzcWGO9t-ejSg-37" style="edgeStyle=orthogonalEdgeStyle;rounded=0;orthogonalLoop=1;jettySize=auto;html=1;entryX=0.044;entryY=0.625;entryDx=0;entryDy=0;entryPerimeter=0;dashed=1;" edge="1" parent="1" source="-hpMREdGzcWGO9t-ejSg-14" target="-hpMREdGzcWGO9t-ejSg-36">
          <mxGeometry relative="1" as="geometry" />
        </mxCell>
        <mxCell id="-hpMREdGzcWGO9t-ejSg-38" value="1.9 Welcome email" style="edgeLabel;html=1;align=center;verticalAlign=middle;resizable=0;points=[];" vertex="1" connectable="0" parent="-hpMREdGzcWGO9t-ejSg-37">
          <mxGeometry x="0.0074" y="1" relative="1" as="geometry">
            <mxPoint as="offset" />
          </mxGeometry>
        </mxCell>
      </root>
    </mxGraphModel>
  </diagram>
</mxfile>
